<?xml version="1.0" encoding="UTF-8" standalone="no"?><svg xmlns="http://www.w3.org/2000/svg" xmlns:xlink="http://www.w3.org/1999/xlink" contentScriptType="application/ecmascript" contentStyleType="text/css" height="474px" preserveAspectRatio="none" style="width:2353px;height:474px;" version="1.1" viewBox="0 0 2353 474" width="2353px" zoomAndPan="magnify"><defs><filter height="300%" id="f1cxqh7x3h8huy" width="300%" x="-1" y="-1"><feGaussianBlur result="blurOut" stdDeviation="2.0"/><feColorMatrix in="blurOut" result="blurOut2" type="matrix" values="0 0 0 0 0 0 0 0 0 0 0 0 0 0 0 0 0 0 .4 0"/><feOffset dx="4.0" dy="4.0" in="blurOut2" result="blurOut3"/><feBlend in="SourceGraphic" in2="blurOut3" mode="normal"/></filter></defs><g><!--cluster gear-lib--><polygon fill="#FFFFFF" filter="url(#f1cxqh7x3h8huy)" points="14,16,80,16,87,38.2969,2331,38.2969,2331,462,14,462,14,16" style="stroke: #000000; stroke-width: 2.0;"/><line style="stroke: #000000; stroke-width: 2.0;" x1="14" x2="87" y1="38.2969" y2="38.2969"/><text fill="#000000" font-family="sans-serif" font-size="14" font-weight="bold" lengthAdjust="spacingAndGlyphs" textLength="60" x="18" y="30.9951">gear-lib</text><!--class libbase64--><rect fill="#FEFECE" filter="url(#f1cxqh7x3h8huy)" height="48" id="libbase64" style="stroke: #A80036; stroke-width: 1.5;" width="93" x="920.5" y="164"/><ellipse cx="935.5" cy="180" fill="#ADD1B2" rx="11" ry="11" style="stroke: #A80036; stroke-width: 1.0;"/><path d="M938.4688,185.6406 Q937.8906,185.9375 937.25,186.0781 Q936.6094,186.2344 935.9063,186.2344 Q933.4063,186.2344 932.0781,184.5938 Q930.7656,182.9375 930.7656,179.8125 Q930.7656,176.6875 932.0781,175.0313 Q933.4063,173.375 935.9063,173.375 Q936.6094,173.375 937.25,173.5313 Q937.9063,173.6875 938.4688,173.9844 L938.4688,176.7031 Q937.8438,176.125 937.25,175.8594 Q936.6563,175.5781 936.0313,175.5781 Q934.6875,175.5781 934,176.6563 Q933.3125,177.7188 933.3125,179.8125 Q933.3125,181.9063 934,182.9844 Q934.6875,184.0469 936.0313,184.0469 Q936.6563,184.0469 937.25,183.7813 Q937.8438,183.5 938.4688,182.9219 L938.4688,185.6406 Z "/><text fill="#000000" font-family="sans-serif" font-size="12" lengthAdjust="spacingAndGlyphs" textLength="61" x="949.5" y="184.1543">libbase64</text><line style="stroke: #A80036; stroke-width: 1.5;" x1="921.5" x2="1012.5" y1="196" y2="196"/><line style="stroke: #A80036; stroke-width: 1.5;" x1="921.5" x2="1012.5" y1="204" y2="204"/><!--class libconfig--><rect fill="#FEFECE" filter="url(#f1cxqh7x3h8huy)" height="48" id="libconfig" style="stroke: #A80036; stroke-width: 1.5;" width="84" x="180" y="164"/><ellipse cx="195" cy="180" fill="#ADD1B2" rx="11" ry="11" style="stroke: #A80036; stroke-width: 1.0;"/><path d="M197.9688,185.6406 Q197.3906,185.9375 196.75,186.0781 Q196.1094,186.2344 195.4063,186.2344 Q192.9063,186.2344 191.5781,184.5938 Q190.2656,182.9375 190.2656,179.8125 Q190.2656,176.6875 191.5781,175.0313 Q192.9063,173.375 195.4063,173.375 Q196.1094,173.375 196.75,173.5313 Q197.4063,173.6875 197.9688,173.9844 L197.9688,176.7031 Q197.3438,176.125 196.75,175.8594 Q196.1563,175.5781 195.5313,175.5781 Q194.1875,175.5781 193.5,176.6563 Q192.8125,177.7188 192.8125,179.8125 Q192.8125,181.9063 193.5,182.9844 Q194.1875,184.0469 195.5313,184.0469 Q196.1563,184.0469 196.75,183.7813 Q197.3438,183.5 197.9688,182.9219 L197.9688,185.6406 Z "/><text fill="#000000" font-family="sans-serif" font-size="12" lengthAdjust="spacingAndGlyphs" textLength="52" x="209" y="184.1543">libconfig</text><line style="stroke: #A80036; stroke-width: 1.5;" x1="181" x2="263" y1="196" y2="196"/><line style="stroke: #A80036; stroke-width: 1.5;" x1="181" x2="263" y1="204" y2="204"/><!--class libdarray--><rect fill="#FEFECE" filter="url(#f1cxqh7x3h8huy)" height="48" id="libdarray" style="stroke: #A80036; stroke-width: 1.5;" width="86" x="1639" y="406"/><ellipse cx="1654" cy="422" fill="#ADD1B2" rx="11" ry="11" style="stroke: #A80036; stroke-width: 1.0;"/><path d="M1656.9688,427.6406 Q1656.3906,427.9375 1655.75,428.0781 Q1655.1094,428.2344 1654.4063,428.2344 Q1651.9063,428.2344 1650.5781,426.5938 Q1649.2656,424.9375 1649.2656,421.8125 Q1649.2656,418.6875 1650.5781,417.0313 Q1651.9063,415.375 1654.4063,415.375 Q1655.1094,415.375 1655.75,415.5313 Q1656.4063,415.6875 1656.9688,415.9844 L1656.9688,418.7031 Q1656.3438,418.125 1655.75,417.8594 Q1655.1563,417.5781 1654.5313,417.5781 Q1653.1875,417.5781 1652.5,418.6563 Q1651.8125,419.7188 1651.8125,421.8125 Q1651.8125,423.9063 1652.5,424.9844 Q1653.1875,426.0469 1654.5313,426.0469 Q1655.1563,426.0469 1655.75,425.7813 Q1656.3438,425.5 1656.9688,424.9219 L1656.9688,427.6406 Z "/><text fill="#000000" font-family="sans-serif" font-size="12" lengthAdjust="spacingAndGlyphs" textLength="54" x="1668" y="426.1543">libdarray</text><line style="stroke: #A80036; stroke-width: 1.5;" x1="1640" x2="1724" y1="438" y2="438"/><line style="stroke: #A80036; stroke-width: 1.5;" x1="1640" x2="1724" y1="446" y2="446"/><!--class libdebug--><rect fill="#FEFECE" filter="url(#f1cxqh7x3h8huy)" height="48" id="libdebug" style="stroke: #A80036; stroke-width: 1.5;" width="86" x="1865" y="49.5"/><ellipse cx="1880" cy="65.5" fill="#ADD1B2" rx="11" ry="11" style="stroke: #A80036; stroke-width: 1.0;"/><path d="M1882.9688,71.1406 Q1882.3906,71.4375 1881.75,71.5781 Q1881.1094,71.7344 1880.4063,71.7344 Q1877.9063,71.7344 1876.5781,70.0938 Q1875.2656,68.4375 1875.2656,65.3125 Q1875.2656,62.1875 1876.5781,60.5313 Q1877.9063,58.875 1880.4063,58.875 Q1881.1094,58.875 1881.75,59.0313 Q1882.4063,59.1875 1882.9688,59.4844 L1882.9688,62.2031 Q1882.3438,61.625 1881.75,61.3594 Q1881.1563,61.0781 1880.5313,61.0781 Q1879.1875,61.0781 1878.5,62.1563 Q1877.8125,63.2188 1877.8125,65.3125 Q1877.8125,67.4063 1878.5,68.4844 Q1879.1875,69.5469 1880.5313,69.5469 Q1881.1563,69.5469 1881.75,69.2813 Q1882.3438,69 1882.9688,68.4219 L1882.9688,71.1406 Z "/><text fill="#000000" font-family="sans-serif" font-size="12" lengthAdjust="spacingAndGlyphs" textLength="54" x="1894" y="69.6543">libdebug</text><line style="stroke: #A80036; stroke-width: 1.5;" x1="1866" x2="1950" y1="81.5" y2="81.5"/><line style="stroke: #A80036; stroke-width: 1.5;" x1="1866" x2="1950" y1="89.5" y2="89.5"/><!--class libdict--><rect fill="#FEFECE" filter="url(#f1cxqh7x3h8huy)" height="48" id="libdict" style="stroke: #A80036; stroke-width: 1.5;" width="69" x="1718.5" y="285"/><ellipse cx="1733.5" cy="301" fill="#ADD1B2" rx="11" ry="11" style="stroke: #A80036; stroke-width: 1.0;"/><path d="M1736.4688,306.6406 Q1735.8906,306.9375 1735.25,307.0781 Q1734.6094,307.2344 1733.9063,307.2344 Q1731.4063,307.2344 1730.0781,305.5938 Q1728.7656,303.9375 1728.7656,300.8125 Q1728.7656,297.6875 1730.0781,296.0313 Q1731.4063,294.375 1733.9063,294.375 Q1734.6094,294.375 1735.25,294.5313 Q1735.9063,294.6875 1736.4688,294.9844 L1736.4688,297.7031 Q1735.8438,297.125 1735.25,296.8594 Q1734.6563,296.5781 1734.0313,296.5781 Q1732.6875,296.5781 1732,297.6563 Q1731.3125,298.7188 1731.3125,300.8125 Q1731.3125,302.9063 1732,303.9844 Q1732.6875,305.0469 1734.0313,305.0469 Q1734.6563,305.0469 1735.25,304.7813 Q1735.8438,304.5 1736.4688,303.9219 L1736.4688,306.6406 Z "/><text fill="#000000" font-family="sans-serif" font-size="12" lengthAdjust="spacingAndGlyphs" textLength="37" x="1747.5" y="305.1543">libdict</text><line style="stroke: #A80036; stroke-width: 1.5;" x1="1719.5" x2="1786.5" y1="317" y2="317"/><line style="stroke: #A80036; stroke-width: 1.5;" x1="1719.5" x2="1786.5" y1="325" y2="325"/><!--class libfile--><rect fill="#FEFECE" filter="url(#f1cxqh7x3h8huy)" height="60.8047" id="libfile" style="stroke: #A80036; stroke-width: 1.5;" width="87" x="1986.5" y="43"/><ellipse cx="2011.85" cy="59" fill="#ADD1B2" rx="11" ry="11" style="stroke: #A80036; stroke-width: 1.0;"/><path d="M2014.8188,64.6406 Q2014.2406,64.9375 2013.6,65.0781 Q2012.9594,65.2344 2012.2563,65.2344 Q2009.7563,65.2344 2008.4281,63.5938 Q2007.1156,61.9375 2007.1156,58.8125 Q2007.1156,55.6875 2008.4281,54.0313 Q2009.7563,52.375 2012.2563,52.375 Q2012.9594,52.375 2013.6,52.5313 Q2014.2563,52.6875 2014.8188,52.9844 L2014.8188,55.7031 Q2014.1938,55.125 2013.6,54.8594 Q2013.0063,54.5781 2012.3813,54.5781 Q2011.0375,54.5781 2010.35,55.6563 Q2009.6625,56.7188 2009.6625,58.8125 Q2009.6625,60.9063 2010.35,61.9844 Q2011.0375,63.0469 2012.3813,63.0469 Q2013.0063,63.0469 2013.6,62.7813 Q2014.1938,62.5 2014.8188,61.9219 L2014.8188,64.6406 Z "/><text fill="#000000" font-family="sans-serif" font-size="12" lengthAdjust="spacingAndGlyphs" textLength="32" x="2028.15" y="63.1543">libfile</text><line style="stroke: #A80036; stroke-width: 1.5;" x1="1987.5" x2="2072.5" y1="75" y2="75"/><text fill="#000000" font-family="sans-serif" font-size="11" lengthAdjust="spacingAndGlyphs" textLength="75" x="1992.5" y="89.2104">libfilewatcher</text><line style="stroke: #A80036; stroke-width: 1.5;" x1="1987.5" x2="2072.5" y1="95.8047" y2="95.8047"/><!--class libfsm--><rect fill="#FEFECE" filter="url(#f1cxqh7x3h8huy)" height="48" id="libfsm" style="stroke: #A80036; stroke-width: 1.5;" width="68" x="2109" y="49.5"/><ellipse cx="2124" cy="65.5" fill="#ADD1B2" rx="11" ry="11" style="stroke: #A80036; stroke-width: 1.0;"/><path d="M2126.9688,71.1406 Q2126.3906,71.4375 2125.75,71.5781 Q2125.1094,71.7344 2124.4063,71.7344 Q2121.9063,71.7344 2120.5781,70.0938 Q2119.2656,68.4375 2119.2656,65.3125 Q2119.2656,62.1875 2120.5781,60.5313 Q2121.9063,58.875 2124.4063,58.875 Q2125.1094,58.875 2125.75,59.0313 Q2126.4063,59.1875 2126.9688,59.4844 L2126.9688,62.2031 Q2126.3438,61.625 2125.75,61.3594 Q2125.1563,61.0781 2124.5313,61.0781 Q2123.1875,61.0781 2122.5,62.1563 Q2121.8125,63.2188 2121.8125,65.3125 Q2121.8125,67.4063 2122.5,68.4844 Q2123.1875,69.5469 2124.5313,69.5469 Q2125.1563,69.5469 2125.75,69.2813 Q2126.3438,69 2126.9688,68.4219 L2126.9688,71.1406 Z "/><text fill="#000000" font-family="sans-serif" font-size="12" lengthAdjust="spacingAndGlyphs" textLength="36" x="2138" y="69.6543">libfsm</text><line style="stroke: #A80036; stroke-width: 1.5;" x1="2110" x2="2176" y1="81.5" y2="81.5"/><line style="stroke: #A80036; stroke-width: 1.5;" x1="2110" x2="2176" y1="89.5" y2="89.5"/><!--class libgevent--><rect fill="#FEFECE" filter="url(#f1cxqh7x3h8huy)" height="48" id="libgevent" style="stroke: #A80036; stroke-width: 1.5;" width="89" x="1556.5" y="285"/><ellipse cx="1571.5" cy="301" fill="#ADD1B2" rx="11" ry="11" style="stroke: #A80036; stroke-width: 1.0;"/><path d="M1574.4688,306.6406 Q1573.8906,306.9375 1573.25,307.0781 Q1572.6094,307.2344 1571.9063,307.2344 Q1569.4063,307.2344 1568.0781,305.5938 Q1566.7656,303.9375 1566.7656,300.8125 Q1566.7656,297.6875 1568.0781,296.0313 Q1569.4063,294.375 1571.9063,294.375 Q1572.6094,294.375 1573.25,294.5313 Q1573.9063,294.6875 1574.4688,294.9844 L1574.4688,297.7031 Q1573.8438,297.125 1573.25,296.8594 Q1572.6563,296.5781 1572.0313,296.5781 Q1570.6875,296.5781 1570,297.6563 Q1569.3125,298.7188 1569.3125,300.8125 Q1569.3125,302.9063 1570,303.9844 Q1570.6875,305.0469 1572.0313,305.0469 Q1572.6563,305.0469 1573.25,304.7813 Q1573.8438,304.5 1574.4688,303.9219 L1574.4688,306.6406 Z "/><text fill="#000000" font-family="sans-serif" font-size="12" lengthAdjust="spacingAndGlyphs" textLength="57" x="1585.5" y="305.1543">libgevent</text><line style="stroke: #A80036; stroke-width: 1.5;" x1="1557.5" x2="1644.5" y1="317" y2="317"/><line style="stroke: #A80036; stroke-width: 1.5;" x1="1557.5" x2="1644.5" y1="325" y2="325"/><!--class libhal--><rect fill="#FEFECE" filter="url(#f1cxqh7x3h8huy)" height="48" id="libhal" style="stroke: #A80036; stroke-width: 1.5;" width="65" x="2212.5" y="49.5"/><ellipse cx="2227.5" cy="65.5" fill="#ADD1B2" rx="11" ry="11" style="stroke: #A80036; stroke-width: 1.0;"/><path d="M2230.4688,71.1406 Q2229.8906,71.4375 2229.25,71.5781 Q2228.6094,71.7344 2227.9063,71.7344 Q2225.4063,71.7344 2224.0781,70.0938 Q2222.7656,68.4375 2222.7656,65.3125 Q2222.7656,62.1875 2224.0781,60.5313 Q2225.4063,58.875 2227.9063,58.875 Q2228.6094,58.875 2229.25,59.0313 Q2229.9063,59.1875 2230.4688,59.4844 L2230.4688,62.2031 Q2229.8438,61.625 2229.25,61.3594 Q2228.6563,61.0781 2228.0313,61.0781 Q2226.6875,61.0781 2226,62.1563 Q2225.3125,63.2188 2225.3125,65.3125 Q2225.3125,67.4063 2226,68.4844 Q2226.6875,69.5469 2228.0313,69.5469 Q2228.6563,69.5469 2229.25,69.2813 Q2229.8438,69 2230.4688,68.4219 L2230.4688,71.1406 Z "/><text fill="#000000" font-family="sans-serif" font-size="12" lengthAdjust="spacingAndGlyphs" textLength="33" x="2241.5" y="69.6543">libhal</text><line style="stroke: #A80036; stroke-width: 1.5;" x1="2213.5" x2="2276.5" y1="81.5" y2="81.5"/><line style="stroke: #A80036; stroke-width: 1.5;" x1="2213.5" x2="2276.5" y1="89.5" y2="89.5"/><!--class libhash--><rect fill="#FEFECE" filter="url(#f1cxqh7x3h8huy)" height="48" id="libhash" style="stroke: #A80036; stroke-width: 1.5;" width="77" x="1418.5" y="164"/><ellipse cx="1433.5" cy="180" fill="#ADD1B2" rx="11" ry="11" style="stroke: #A80036; stroke-width: 1.0;"/><path d="M1436.4688,185.6406 Q1435.8906,185.9375 1435.25,186.0781 Q1434.6094,186.2344 1433.9063,186.2344 Q1431.4063,186.2344 1430.0781,184.5938 Q1428.7656,182.9375 1428.7656,179.8125 Q1428.7656,176.6875 1430.0781,175.0313 Q1431.4063,173.375 1433.9063,173.375 Q1434.6094,173.375 1435.25,173.5313 Q1435.9063,173.6875 1436.4688,173.9844 L1436.4688,176.7031 Q1435.8438,176.125 1435.25,175.8594 Q1434.6563,175.5781 1434.0313,175.5781 Q1432.6875,175.5781 1432,176.6563 Q1431.3125,177.7188 1431.3125,179.8125 Q1431.3125,181.9063 1432,182.9844 Q1432.6875,184.0469 1434.0313,184.0469 Q1434.6563,184.0469 1435.25,183.7813 Q1435.8438,183.5 1436.4688,182.9219 L1436.4688,185.6406 Z "/><text fill="#000000" font-family="sans-serif" font-size="12" lengthAdjust="spacingAndGlyphs" textLength="45" x="1447.5" y="184.1543">libhash</text><line style="stroke: #A80036; stroke-width: 1.5;" x1="1419.5" x2="1494.5" y1="196" y2="196"/><line style="stroke: #A80036; stroke-width: 1.5;" x1="1419.5" x2="1494.5" y1="204" y2="204"/><!--class libhomekit--><rect fill="#FEFECE" filter="url(#f1cxqh7x3h8huy)" height="48" id="libhomekit" style="stroke: #A80036; stroke-width: 1.5;" width="96" x="1860" y="164"/><ellipse cx="1875" cy="180" fill="#ADD1B2" rx="11" ry="11" style="stroke: #A80036; stroke-width: 1.0;"/><path d="M1877.9688,185.6406 Q1877.3906,185.9375 1876.75,186.0781 Q1876.1094,186.2344 1875.4063,186.2344 Q1872.9063,186.2344 1871.5781,184.5938 Q1870.2656,182.9375 1870.2656,179.8125 Q1870.2656,176.6875 1871.5781,175.0313 Q1872.9063,173.375 1875.4063,173.375 Q1876.1094,173.375 1876.75,173.5313 Q1877.4063,173.6875 1877.9688,173.9844 L1877.9688,176.7031 Q1877.3438,176.125 1876.75,175.8594 Q1876.1563,175.5781 1875.5313,175.5781 Q1874.1875,175.5781 1873.5,176.6563 Q1872.8125,177.7188 1872.8125,179.8125 Q1872.8125,181.9063 1873.5,182.9844 Q1874.1875,184.0469 1875.5313,184.0469 Q1876.1563,184.0469 1876.75,183.7813 Q1877.3438,183.5 1877.9688,182.9219 L1877.9688,185.6406 Z "/><text fill="#000000" font-family="sans-serif" font-size="12" lengthAdjust="spacingAndGlyphs" textLength="64" x="1889" y="184.1543">libhomekit</text><line style="stroke: #A80036; stroke-width: 1.5;" x1="1861" x2="1955" y1="196" y2="196"/><line style="stroke: #A80036; stroke-width: 1.5;" x1="1861" x2="1955" y1="204" y2="204"/><!--class libipc--><rect fill="#FEFECE" filter="url(#f1cxqh7x3h8huy)" height="48" id="libipc" style="stroke: #A80036; stroke-width: 1.5;" width="64" x="1724" y="164"/><ellipse cx="1739" cy="180" fill="#ADD1B2" rx="11" ry="11" style="stroke: #A80036; stroke-width: 1.0;"/><path d="M1741.9688,185.6406 Q1741.3906,185.9375 1740.75,186.0781 Q1740.1094,186.2344 1739.4063,186.2344 Q1736.9063,186.2344 1735.5781,184.5938 Q1734.2656,182.9375 1734.2656,179.8125 Q1734.2656,176.6875 1735.5781,175.0313 Q1736.9063,173.375 1739.4063,173.375 Q1740.1094,173.375 1740.75,173.5313 Q1741.4063,173.6875 1741.9688,173.9844 L1741.9688,176.7031 Q1741.3438,176.125 1740.75,175.8594 Q1740.1563,175.5781 1739.5313,175.5781 Q1738.1875,175.5781 1737.5,176.6563 Q1736.8125,177.7188 1736.8125,179.8125 Q1736.8125,181.9063 1737.5,182.9844 Q1738.1875,184.0469 1739.5313,184.0469 Q1740.1563,184.0469 1740.75,183.7813 Q1741.3438,183.5 1741.9688,182.9219 L1741.9688,185.6406 Z "/><text fill="#000000" font-family="sans-serif" font-size="12" lengthAdjust="spacingAndGlyphs" textLength="32" x="1753" y="184.1543">libipc</text><line style="stroke: #A80036; stroke-width: 1.5;" x1="1725" x2="1787" y1="196" y2="196"/><line style="stroke: #A80036; stroke-width: 1.5;" x1="1725" x2="1787" y1="204" y2="204"/><!--class libmedia-io--><rect fill="#FEFECE" filter="url(#f1cxqh7x3h8huy)" height="48" id="libmedia-io" style="stroke: #A80036; stroke-width: 1.5;" width="99" x="676.5" y="164"/><ellipse cx="691.5" cy="180" fill="#ADD1B2" rx="11" ry="11" style="stroke: #A80036; stroke-width: 1.0;"/><path d="M694.4688,185.6406 Q693.8906,185.9375 693.25,186.0781 Q692.6094,186.2344 691.9063,186.2344 Q689.4063,186.2344 688.0781,184.5938 Q686.7656,182.9375 686.7656,179.8125 Q686.7656,176.6875 688.0781,175.0313 Q689.4063,173.375 691.9063,173.375 Q692.6094,173.375 693.25,173.5313 Q693.9063,173.6875 694.4688,173.9844 L694.4688,176.7031 Q693.8438,176.125 693.25,175.8594 Q692.6563,175.5781 692.0313,175.5781 Q690.6875,175.5781 690,176.6563 Q689.3125,177.7188 689.3125,179.8125 Q689.3125,181.9063 690,182.9844 Q690.6875,184.0469 692.0313,184.0469 Q692.6563,184.0469 693.25,183.7813 Q693.8438,183.5 694.4688,182.9219 L694.4688,185.6406 Z "/><text fill="#000000" font-family="sans-serif" font-size="12" lengthAdjust="spacingAndGlyphs" textLength="67" x="705.5" y="184.1543">libmedia-io</text><line style="stroke: #A80036; stroke-width: 1.5;" x1="677.5" x2="774.5" y1="196" y2="196"/><line style="stroke: #A80036; stroke-width: 1.5;" x1="677.5" x2="774.5" y1="204" y2="204"/><!--class libmp4--><rect fill="#FEFECE" filter="url(#f1cxqh7x3h8huy)" height="48" id="libmp4" style="stroke: #A80036; stroke-width: 1.5;" width="73" x="803.5" y="49.5"/><ellipse cx="818.5" cy="65.5" fill="#ADD1B2" rx="11" ry="11" style="stroke: #A80036; stroke-width: 1.0;"/><path d="M821.4688,71.1406 Q820.8906,71.4375 820.25,71.5781 Q819.6094,71.7344 818.9063,71.7344 Q816.4063,71.7344 815.0781,70.0938 Q813.7656,68.4375 813.7656,65.3125 Q813.7656,62.1875 815.0781,60.5313 Q816.4063,58.875 818.9063,58.875 Q819.6094,58.875 820.25,59.0313 Q820.9063,59.1875 821.4688,59.4844 L821.4688,62.2031 Q820.8438,61.625 820.25,61.3594 Q819.6563,61.0781 819.0313,61.0781 Q817.6875,61.0781 817,62.1563 Q816.3125,63.2188 816.3125,65.3125 Q816.3125,67.4063 817,68.4844 Q817.6875,69.5469 819.0313,69.5469 Q819.6563,69.5469 820.25,69.2813 Q820.8438,69 821.4688,68.4219 L821.4688,71.1406 Z "/><text fill="#000000" font-family="sans-serif" font-size="12" lengthAdjust="spacingAndGlyphs" textLength="41" x="832.5" y="69.6543">libmp4</text><line style="stroke: #A80036; stroke-width: 1.5;" x1="804.5" x2="875.5" y1="81.5" y2="81.5"/><line style="stroke: #A80036; stroke-width: 1.5;" x1="804.5" x2="875.5" y1="89.5" y2="89.5"/><!--class libp2p--><rect fill="#FEFECE" filter="url(#f1cxqh7x3h8huy)" height="48" id="libp2p" style="stroke: #A80036; stroke-width: 1.5;" width="70" x="1991" y="164"/><ellipse cx="2006" cy="180" fill="#ADD1B2" rx="11" ry="11" style="stroke: #A80036; stroke-width: 1.0;"/><path d="M2008.9688,185.6406 Q2008.3906,185.9375 2007.75,186.0781 Q2007.1094,186.2344 2006.4063,186.2344 Q2003.9063,186.2344 2002.5781,184.5938 Q2001.2656,182.9375 2001.2656,179.8125 Q2001.2656,176.6875 2002.5781,175.0313 Q2003.9063,173.375 2006.4063,173.375 Q2007.1094,173.375 2007.75,173.5313 Q2008.4063,173.6875 2008.9688,173.9844 L2008.9688,176.7031 Q2008.3438,176.125 2007.75,175.8594 Q2007.1563,175.5781 2006.5313,175.5781 Q2005.1875,175.5781 2004.5,176.6563 Q2003.8125,177.7188 2003.8125,179.8125 Q2003.8125,181.9063 2004.5,182.9844 Q2005.1875,184.0469 2006.5313,184.0469 Q2007.1563,184.0469 2007.75,183.7813 Q2008.3438,183.5 2008.9688,182.9219 L2008.9688,185.6406 Z "/><text fill="#000000" font-family="sans-serif" font-size="12" lengthAdjust="spacingAndGlyphs" textLength="38" x="2020" y="184.1543">libp2p</text><line style="stroke: #A80036; stroke-width: 1.5;" x1="1992" x2="2060" y1="196" y2="196"/><line style="stroke: #A80036; stroke-width: 1.5;" x1="1992" x2="2060" y1="204" y2="204"/><!--class libplugin--><rect fill="#FEFECE" filter="url(#f1cxqh7x3h8huy)" height="48" id="libplugin" style="stroke: #A80036; stroke-width: 1.5;" width="84" x="520" y="164"/><ellipse cx="535" cy="180" fill="#ADD1B2" rx="11" ry="11" style="stroke: #A80036; stroke-width: 1.0;"/><path d="M537.9688,185.6406 Q537.3906,185.9375 536.75,186.0781 Q536.1094,186.2344 535.4063,186.2344 Q532.9063,186.2344 531.5781,184.5938 Q530.2656,182.9375 530.2656,179.8125 Q530.2656,176.6875 531.5781,175.0313 Q532.9063,173.375 535.4063,173.375 Q536.1094,173.375 536.75,173.5313 Q537.4063,173.6875 537.9688,173.9844 L537.9688,176.7031 Q537.3438,176.125 536.75,175.8594 Q536.1563,175.5781 535.5313,175.5781 Q534.1875,175.5781 533.5,176.6563 Q532.8125,177.7188 532.8125,179.8125 Q532.8125,181.9063 533.5,182.9844 Q534.1875,184.0469 535.5313,184.0469 Q536.1563,184.0469 536.75,183.7813 Q537.3438,183.5 537.9688,182.9219 L537.9688,185.6406 Z "/><text fill="#000000" font-family="sans-serif" font-size="12" lengthAdjust="spacingAndGlyphs" textLength="52" x="549" y="184.1543">libplugin</text><line style="stroke: #A80036; stroke-width: 1.5;" x1="521" x2="603" y1="196" y2="196"/><line style="stroke: #A80036; stroke-width: 1.5;" x1="521" x2="603" y1="204" y2="204"/><!--class libposix--><rect fill="#FEFECE" filter="url(#f1cxqh7x3h8huy)" height="73.6094" id="libposix" style="stroke: #A80036; stroke-width: 1.5;" width="85" x="601.5" y="272"/><ellipse cx="619.65" cy="288" fill="#ADD1B2" rx="11" ry="11" style="stroke: #A80036; stroke-width: 1.0;"/><path d="M622.6188,293.6406 Q622.0406,293.9375 621.4,294.0781 Q620.7594,294.2344 620.0563,294.2344 Q617.5563,294.2344 616.2281,292.5938 Q614.9156,290.9375 614.9156,287.8125 Q614.9156,284.6875 616.2281,283.0313 Q617.5563,281.375 620.0563,281.375 Q620.7594,281.375 621.4,281.5313 Q622.0563,281.6875 622.6188,281.9844 L622.6188,284.7031 Q621.9938,284.125 621.4,283.8594 Q620.8063,283.5781 620.1813,283.5781 Q618.8375,283.5781 618.15,284.6563 Q617.4625,285.7188 617.4625,287.8125 Q617.4625,289.9063 618.15,290.9844 Q618.8375,292.0469 620.1813,292.0469 Q620.8063,292.0469 621.4,291.7813 Q621.9938,291.5 622.6188,290.9219 L622.6188,293.6406 Z "/><text fill="#000000" font-family="sans-serif" font-size="12" lengthAdjust="spacingAndGlyphs" textLength="46" x="634.35" y="292.1543">libposix</text><line style="stroke: #A80036; stroke-width: 1.5;" x1="602.5" x2="685.5" y1="304" y2="304"/><text fill="#000000" font-family="sans-serif" font-size="11" lengthAdjust="spacingAndGlyphs" textLength="73" x="607.5" y="318.2104">libposix4rtos</text><text fill="#000000" font-family="sans-serif" font-size="11" lengthAdjust="spacingAndGlyphs" textLength="69" x="607.5" y="331.0151">libposix4win</text><line style="stroke: #A80036; stroke-width: 1.5;" x1="602.5" x2="685.5" y1="337.6094" y2="337.6094"/><!--class libqueue--><rect fill="#FEFECE" filter="url(#f1cxqh7x3h8huy)" height="48" id="libqueue" style="stroke: #A80036; stroke-width: 1.5;" width="86" x="22" y="164"/><ellipse cx="37" cy="180" fill="#ADD1B2" rx="11" ry="11" style="stroke: #A80036; stroke-width: 1.0;"/><path d="M39.9688,185.6406 Q39.3906,185.9375 38.75,186.0781 Q38.1094,186.2344 37.4063,186.2344 Q34.9063,186.2344 33.5781,184.5938 Q32.2656,182.9375 32.2656,179.8125 Q32.2656,176.6875 33.5781,175.0313 Q34.9063,173.375 37.4063,173.375 Q38.1094,173.375 38.75,173.5313 Q39.4063,173.6875 39.9688,173.9844 L39.9688,176.7031 Q39.3438,176.125 38.75,175.8594 Q38.1563,175.5781 37.5313,175.5781 Q36.1875,175.5781 35.5,176.6563 Q34.8125,177.7188 34.8125,179.8125 Q34.8125,181.9063 35.5,182.9844 Q36.1875,184.0469 37.5313,184.0469 Q38.1563,184.0469 38.75,183.7813 Q39.3438,183.5 39.9688,182.9219 L39.9688,185.6406 Z "/><text fill="#000000" font-family="sans-serif" font-size="12" lengthAdjust="spacingAndGlyphs" textLength="54" x="51" y="184.1543">libqueue</text><line style="stroke: #A80036; stroke-width: 1.5;" x1="23" x2="107" y1="196" y2="196"/><line style="stroke: #A80036; stroke-width: 1.5;" x1="23" x2="107" y1="204" y2="204"/><!--class librbtree--><rect fill="#FEFECE" filter="url(#f1cxqh7x3h8huy)" height="48" id="librbtree" style="stroke: #A80036; stroke-width: 1.5;" width="85" x="2096.5" y="164"/><ellipse cx="2111.5" cy="180" fill="#ADD1B2" rx="11" ry="11" style="stroke: #A80036; stroke-width: 1.0;"/><path d="M2114.4688,185.6406 Q2113.8906,185.9375 2113.25,186.0781 Q2112.6094,186.2344 2111.9063,186.2344 Q2109.4063,186.2344 2108.0781,184.5938 Q2106.7656,182.9375 2106.7656,179.8125 Q2106.7656,176.6875 2108.0781,175.0313 Q2109.4063,173.375 2111.9063,173.375 Q2112.6094,173.375 2113.25,173.5313 Q2113.9063,173.6875 2114.4688,173.9844 L2114.4688,176.7031 Q2113.8438,176.125 2113.25,175.8594 Q2112.6563,175.5781 2112.0313,175.5781 Q2110.6875,175.5781 2110,176.6563 Q2109.3125,177.7188 2109.3125,179.8125 Q2109.3125,181.9063 2110,182.9844 Q2110.6875,184.0469 2112.0313,184.0469 Q2112.6563,184.0469 2113.25,183.7813 Q2113.8438,183.5 2114.4688,182.9219 L2114.4688,185.6406 Z "/><text fill="#000000" font-family="sans-serif" font-size="12" lengthAdjust="spacingAndGlyphs" textLength="53" x="2125.5" y="184.1543">librbtree</text><line style="stroke: #A80036; stroke-width: 1.5;" x1="2097.5" x2="2180.5" y1="196" y2="196"/><line style="stroke: #A80036; stroke-width: 1.5;" x1="2097.5" x2="2180.5" y1="204" y2="204"/><!--class libringbuffer--><rect fill="#FEFECE" filter="url(#f1cxqh7x3h8huy)" height="48" id="libringbuffer" style="stroke: #A80036; stroke-width: 1.5;" width="107" x="2216.5" y="164"/><ellipse cx="2231.5" cy="180" fill="#ADD1B2" rx="11" ry="11" style="stroke: #A80036; stroke-width: 1.0;"/><path d="M2234.4688,185.6406 Q2233.8906,185.9375 2233.25,186.0781 Q2232.6094,186.2344 2231.9063,186.2344 Q2229.4063,186.2344 2228.0781,184.5938 Q2226.7656,182.9375 2226.7656,179.8125 Q2226.7656,176.6875 2228.0781,175.0313 Q2229.4063,173.375 2231.9063,173.375 Q2232.6094,173.375 2233.25,173.5313 Q2233.9063,173.6875 2234.4688,173.9844 L2234.4688,176.7031 Q2233.8438,176.125 2233.25,175.8594 Q2232.6563,175.5781 2232.0313,175.5781 Q2230.6875,175.5781 2230,176.6563 Q2229.3125,177.7188 2229.3125,179.8125 Q2229.3125,181.9063 2230,182.9844 Q2230.6875,184.0469 2232.0313,184.0469 Q2232.6563,184.0469 2233.25,183.7813 Q2233.8438,183.5 2234.4688,182.9219 L2234.4688,185.6406 Z "/><text fill="#000000" font-family="sans-serif" font-size="12" lengthAdjust="spacingAndGlyphs" textLength="75" x="2245.5" y="184.1543">libringbuffer</text><line style="stroke: #A80036; stroke-width: 1.5;" x1="2217.5" x2="2322.5" y1="196" y2="196"/><line style="stroke: #A80036; stroke-width: 1.5;" x1="2217.5" x2="2322.5" y1="204" y2="204"/><!--class librpc--><rect fill="#FEFECE" filter="url(#f1cxqh7x3h8huy)" height="48" id="librpc" style="stroke: #A80036; stroke-width: 1.5;" width="66" x="1461" y="49.5"/><ellipse cx="1476" cy="65.5" fill="#ADD1B2" rx="11" ry="11" style="stroke: #A80036; stroke-width: 1.0;"/><path d="M1478.9688,71.1406 Q1478.3906,71.4375 1477.75,71.5781 Q1477.1094,71.7344 1476.4063,71.7344 Q1473.9063,71.7344 1472.5781,70.0938 Q1471.2656,68.4375 1471.2656,65.3125 Q1471.2656,62.1875 1472.5781,60.5313 Q1473.9063,58.875 1476.4063,58.875 Q1477.1094,58.875 1477.75,59.0313 Q1478.4063,59.1875 1478.9688,59.4844 L1478.9688,62.2031 Q1478.3438,61.625 1477.75,61.3594 Q1477.1563,61.0781 1476.5313,61.0781 Q1475.1875,61.0781 1474.5,62.1563 Q1473.8125,63.2188 1473.8125,65.3125 Q1473.8125,67.4063 1474.5,68.4844 Q1475.1875,69.5469 1476.5313,69.5469 Q1477.1563,69.5469 1477.75,69.2813 Q1478.3438,69 1478.9688,68.4219 L1478.9688,71.1406 Z "/><text fill="#000000" font-family="sans-serif" font-size="12" lengthAdjust="spacingAndGlyphs" textLength="34" x="1490" y="69.6543">librpc</text><line style="stroke: #A80036; stroke-width: 1.5;" x1="1462" x2="1526" y1="81.5" y2="81.5"/><line style="stroke: #A80036; stroke-width: 1.5;" x1="1462" x2="1526" y1="89.5" y2="89.5"/><!--class librtmpc--><rect fill="#FEFECE" filter="url(#f1cxqh7x3h8huy)" height="48" id="librtmpc" style="stroke: #A80036; stroke-width: 1.5;" width="82" x="103" y="49.5"/><ellipse cx="118" cy="65.5" fill="#ADD1B2" rx="11" ry="11" style="stroke: #A80036; stroke-width: 1.0;"/><path d="M120.9688,71.1406 Q120.3906,71.4375 119.75,71.5781 Q119.1094,71.7344 118.4063,71.7344 Q115.9063,71.7344 114.5781,70.0938 Q113.2656,68.4375 113.2656,65.3125 Q113.2656,62.1875 114.5781,60.5313 Q115.9063,58.875 118.4063,58.875 Q119.1094,58.875 119.75,59.0313 Q120.4063,59.1875 120.9688,59.4844 L120.9688,62.2031 Q120.3438,61.625 119.75,61.3594 Q119.1563,61.0781 118.5313,61.0781 Q117.1875,61.0781 116.5,62.1563 Q115.8125,63.2188 115.8125,65.3125 Q115.8125,67.4063 116.5,68.4844 Q117.1875,69.5469 118.5313,69.5469 Q119.1563,69.5469 119.75,69.2813 Q120.3438,69 120.9688,68.4219 L120.9688,71.1406 Z "/><text fill="#000000" font-family="sans-serif" font-size="12" lengthAdjust="spacingAndGlyphs" textLength="50" x="132" y="69.6543">librtmpc</text><line style="stroke: #A80036; stroke-width: 1.5;" x1="104" x2="184" y1="81.5" y2="81.5"/><line style="stroke: #A80036; stroke-width: 1.5;" x1="104" x2="184" y1="89.5" y2="89.5"/><!--class librtsp--><rect fill="#FEFECE" filter="url(#f1cxqh7x3h8huy)" height="48" id="librtsp" style="stroke: #A80036; stroke-width: 1.5;" width="71" x="1014.5" y="49.5"/><ellipse cx="1029.5" cy="65.5" fill="#ADD1B2" rx="11" ry="11" style="stroke: #A80036; stroke-width: 1.0;"/><path d="M1032.4688,71.1406 Q1031.8906,71.4375 1031.25,71.5781 Q1030.6094,71.7344 1029.9063,71.7344 Q1027.4063,71.7344 1026.0781,70.0938 Q1024.7656,68.4375 1024.7656,65.3125 Q1024.7656,62.1875 1026.0781,60.5313 Q1027.4063,58.875 1029.9063,58.875 Q1030.6094,58.875 1031.25,59.0313 Q1031.9063,59.1875 1032.4688,59.4844 L1032.4688,62.2031 Q1031.8438,61.625 1031.25,61.3594 Q1030.6563,61.0781 1030.0313,61.0781 Q1028.6875,61.0781 1028,62.1563 Q1027.3125,63.2188 1027.3125,65.3125 Q1027.3125,67.4063 1028,68.4844 Q1028.6875,69.5469 1030.0313,69.5469 Q1030.6563,69.5469 1031.25,69.2813 Q1031.8438,69 1032.4688,68.4219 L1032.4688,71.1406 Z "/><text fill="#000000" font-family="sans-serif" font-size="12" lengthAdjust="spacingAndGlyphs" textLength="39" x="1043.5" y="69.6543">librtsp</text><line style="stroke: #A80036; stroke-width: 1.5;" x1="1015.5" x2="1084.5" y1="81.5" y2="81.5"/><line style="stroke: #A80036; stroke-width: 1.5;" x1="1015.5" x2="1084.5" y1="89.5" y2="89.5"/><!--class libskt--><rect fill="#FEFECE" filter="url(#f1cxqh7x3h8huy)" height="48" id="libskt" style="stroke: #A80036; stroke-width: 1.5;" width="65" x="1086.5" y="164"/><ellipse cx="1101.5" cy="180" fill="#ADD1B2" rx="11" ry="11" style="stroke: #A80036; stroke-width: 1.0;"/><path d="M1104.4688,185.6406 Q1103.8906,185.9375 1103.25,186.0781 Q1102.6094,186.2344 1101.9063,186.2344 Q1099.4063,186.2344 1098.0781,184.5938 Q1096.7656,182.9375 1096.7656,179.8125 Q1096.7656,176.6875 1098.0781,175.0313 Q1099.4063,173.375 1101.9063,173.375 Q1102.6094,173.375 1103.25,173.5313 Q1103.9063,173.6875 1104.4688,173.9844 L1104.4688,176.7031 Q1103.8438,176.125 1103.25,175.8594 Q1102.6563,175.5781 1102.0313,175.5781 Q1100.6875,175.5781 1100,176.6563 Q1099.3125,177.7188 1099.3125,179.8125 Q1099.3125,181.9063 1100,182.9844 Q1100.6875,184.0469 1102.0313,184.0469 Q1102.6563,184.0469 1103.25,183.7813 Q1103.8438,183.5 1104.4688,182.9219 L1104.4688,185.6406 Z "/><text fill="#000000" font-family="sans-serif" font-size="12" lengthAdjust="spacingAndGlyphs" textLength="33" x="1115.5" y="184.1543">libskt</text><line style="stroke: #A80036; stroke-width: 1.5;" x1="1087.5" x2="1150.5" y1="196" y2="196"/><line style="stroke: #A80036; stroke-width: 1.5;" x1="1087.5" x2="1150.5" y1="204" y2="204"/><!--class libsort--><rect fill="#FEFECE" filter="url(#f1cxqh7x3h8huy)" height="48" id="libsort" style="stroke: #A80036; stroke-width: 1.5;" width="71" x="1872.5" y="285"/><ellipse cx="1887.5" cy="301" fill="#ADD1B2" rx="11" ry="11" style="stroke: #A80036; stroke-width: 1.0;"/><path d="M1890.4688,306.6406 Q1889.8906,306.9375 1889.25,307.0781 Q1888.6094,307.2344 1887.9063,307.2344 Q1885.4063,307.2344 1884.0781,305.5938 Q1882.7656,303.9375 1882.7656,300.8125 Q1882.7656,297.6875 1884.0781,296.0313 Q1885.4063,294.375 1887.9063,294.375 Q1888.6094,294.375 1889.25,294.5313 Q1889.9063,294.6875 1890.4688,294.9844 L1890.4688,297.7031 Q1889.8438,297.125 1889.25,296.8594 Q1888.6563,296.5781 1888.0313,296.5781 Q1886.6875,296.5781 1886,297.6563 Q1885.3125,298.7188 1885.3125,300.8125 Q1885.3125,302.9063 1886,303.9844 Q1886.6875,305.0469 1888.0313,305.0469 Q1888.6563,305.0469 1889.25,304.7813 Q1889.8438,304.5 1890.4688,303.9219 L1890.4688,306.6406 Z "/><text fill="#000000" font-family="sans-serif" font-size="12" lengthAdjust="spacingAndGlyphs" textLength="39" x="1901.5" y="305.1543">libsort</text><line style="stroke: #A80036; stroke-width: 1.5;" x1="1873.5" x2="1942.5" y1="317" y2="317"/><line style="stroke: #A80036; stroke-width: 1.5;" x1="1873.5" x2="1942.5" y1="325" y2="325"/><!--class libstrex--><rect fill="#FEFECE" filter="url(#f1cxqh7x3h8huy)" height="48" id="libstrex" style="stroke: #A80036; stroke-width: 1.5;" width="77" x="1978.5" y="285"/><ellipse cx="1993.5" cy="301" fill="#ADD1B2" rx="11" ry="11" style="stroke: #A80036; stroke-width: 1.0;"/><path d="M1996.4688,306.6406 Q1995.8906,306.9375 1995.25,307.0781 Q1994.6094,307.2344 1993.9063,307.2344 Q1991.4063,307.2344 1990.0781,305.5938 Q1988.7656,303.9375 1988.7656,300.8125 Q1988.7656,297.6875 1990.0781,296.0313 Q1991.4063,294.375 1993.9063,294.375 Q1994.6094,294.375 1995.25,294.5313 Q1995.9063,294.6875 1996.4688,294.9844 L1996.4688,297.7031 Q1995.8438,297.125 1995.25,296.8594 Q1994.6563,296.5781 1994.0313,296.5781 Q1992.6875,296.5781 1992,297.6563 Q1991.3125,298.7188 1991.3125,300.8125 Q1991.3125,302.9063 1992,303.9844 Q1992.6875,305.0469 1994.0313,305.0469 Q1994.6563,305.0469 1995.25,304.7813 Q1995.8438,304.5 1996.4688,303.9219 L1996.4688,306.6406 Z "/><text fill="#000000" font-family="sans-serif" font-size="12" lengthAdjust="spacingAndGlyphs" textLength="45" x="2007.5" y="305.1543">libstrex</text><line style="stroke: #A80036; stroke-width: 1.5;" x1="1979.5" x2="2054.5" y1="317" y2="317"/><line style="stroke: #A80036; stroke-width: 1.5;" x1="1979.5" x2="2054.5" y1="325" y2="325"/><!--class libsubmask--><rect fill="#FEFECE" filter="url(#f1cxqh7x3h8huy)" height="48" id="libsubmask" style="stroke: #A80036; stroke-width: 1.5;" width="102" x="2091" y="285"/><ellipse cx="2106" cy="301" fill="#ADD1B2" rx="11" ry="11" style="stroke: #A80036; stroke-width: 1.0;"/><path d="M2108.9688,306.6406 Q2108.3906,306.9375 2107.75,307.0781 Q2107.1094,307.2344 2106.4063,307.2344 Q2103.9063,307.2344 2102.5781,305.5938 Q2101.2656,303.9375 2101.2656,300.8125 Q2101.2656,297.6875 2102.5781,296.0313 Q2103.9063,294.375 2106.4063,294.375 Q2107.1094,294.375 2107.75,294.5313 Q2108.4063,294.6875 2108.9688,294.9844 L2108.9688,297.7031 Q2108.3438,297.125 2107.75,296.8594 Q2107.1563,296.5781 2106.5313,296.5781 Q2105.1875,296.5781 2104.5,297.6563 Q2103.8125,298.7188 2103.8125,300.8125 Q2103.8125,302.9063 2104.5,303.9844 Q2105.1875,305.0469 2106.5313,305.0469 Q2107.1563,305.0469 2107.75,304.7813 Q2108.3438,304.5 2108.9688,303.9219 L2108.9688,306.6406 Z "/><text fill="#000000" font-family="sans-serif" font-size="12" lengthAdjust="spacingAndGlyphs" textLength="70" x="2120" y="305.1543">libsubmask</text><line style="stroke: #A80036; stroke-width: 1.5;" x1="2092" x2="2192" y1="317" y2="317"/><line style="stroke: #A80036; stroke-width: 1.5;" x1="2092" x2="2192" y1="325" y2="325"/><!--class libthread--><rect fill="#FEFECE" filter="url(#f1cxqh7x3h8huy)" height="48" id="libthread" style="stroke: #A80036; stroke-width: 1.5;" width="88" x="1187" y="164"/><ellipse cx="1202" cy="180" fill="#ADD1B2" rx="11" ry="11" style="stroke: #A80036; stroke-width: 1.0;"/><path d="M1204.9688,185.6406 Q1204.3906,185.9375 1203.75,186.0781 Q1203.1094,186.2344 1202.4063,186.2344 Q1199.9063,186.2344 1198.5781,184.5938 Q1197.2656,182.9375 1197.2656,179.8125 Q1197.2656,176.6875 1198.5781,175.0313 Q1199.9063,173.375 1202.4063,173.375 Q1203.1094,173.375 1203.75,173.5313 Q1204.4063,173.6875 1204.9688,173.9844 L1204.9688,176.7031 Q1204.3438,176.125 1203.75,175.8594 Q1203.1563,175.5781 1202.5313,175.5781 Q1201.1875,175.5781 1200.5,176.6563 Q1199.8125,177.7188 1199.8125,179.8125 Q1199.8125,181.9063 1200.5,182.9844 Q1201.1875,184.0469 1202.5313,184.0469 Q1203.1563,184.0469 1203.75,183.7813 Q1204.3438,183.5 1204.9688,182.9219 L1204.9688,185.6406 Z "/><text fill="#000000" font-family="sans-serif" font-size="12" lengthAdjust="spacingAndGlyphs" textLength="56" x="1216" y="184.1543">libthread</text><line style="stroke: #A80036; stroke-width: 1.5;" x1="1188" x2="1274" y1="196" y2="196"/><line style="stroke: #A80036; stroke-width: 1.5;" x1="1188" x2="1274" y1="204" y2="204"/><!--class libtime--><rect fill="#FEFECE" filter="url(#f1cxqh7x3h8huy)" height="48" id="libtime" style="stroke: #A80036; stroke-width: 1.5;" width="73" x="1310.5" y="164"/><ellipse cx="1325.5" cy="180" fill="#ADD1B2" rx="11" ry="11" style="stroke: #A80036; stroke-width: 1.0;"/><path d="M1328.4688,185.6406 Q1327.8906,185.9375 1327.25,186.0781 Q1326.6094,186.2344 1325.9063,186.2344 Q1323.4063,186.2344 1322.0781,184.5938 Q1320.7656,182.9375 1320.7656,179.8125 Q1320.7656,176.6875 1322.0781,175.0313 Q1323.4063,173.375 1325.9063,173.375 Q1326.6094,173.375 1327.25,173.5313 Q1327.9063,173.6875 1328.4688,173.9844 L1328.4688,176.7031 Q1327.8438,176.125 1327.25,175.8594 Q1326.6563,175.5781 1326.0313,175.5781 Q1324.6875,175.5781 1324,176.6563 Q1323.3125,177.7188 1323.3125,179.8125 Q1323.3125,181.9063 1324,182.9844 Q1324.6875,184.0469 1326.0313,184.0469 Q1326.6563,184.0469 1327.25,183.7813 Q1327.8438,183.5 1328.4688,182.9219 L1328.4688,185.6406 Z "/><text fill="#000000" font-family="sans-serif" font-size="12" lengthAdjust="spacingAndGlyphs" textLength="41" x="1339.5" y="184.1543">libtime</text><line style="stroke: #A80036; stroke-width: 1.5;" x1="1311.5" x2="1382.5" y1="196" y2="196"/><line style="stroke: #A80036; stroke-width: 1.5;" x1="1311.5" x2="1382.5" y1="204" y2="204"/><!--class libuac--><rect fill="#FEFECE" filter="url(#f1cxqh7x3h8huy)" height="48" id="libuac" style="stroke: #A80036; stroke-width: 1.5;" width="69" x="695.5" y="49.5"/><ellipse cx="710.5" cy="65.5" fill="#ADD1B2" rx="11" ry="11" style="stroke: #A80036; stroke-width: 1.0;"/><path d="M713.4688,71.1406 Q712.8906,71.4375 712.25,71.5781 Q711.6094,71.7344 710.9063,71.7344 Q708.4063,71.7344 707.0781,70.0938 Q705.7656,68.4375 705.7656,65.3125 Q705.7656,62.1875 707.0781,60.5313 Q708.4063,58.875 710.9063,58.875 Q711.6094,58.875 712.25,59.0313 Q712.9063,59.1875 713.4688,59.4844 L713.4688,62.2031 Q712.8438,61.625 712.25,61.3594 Q711.6563,61.0781 711.0313,61.0781 Q709.6875,61.0781 709,62.1563 Q708.3125,63.2188 708.3125,65.3125 Q708.3125,67.4063 709,68.4844 Q709.6875,69.5469 711.0313,69.5469 Q711.6563,69.5469 712.25,69.2813 Q712.8438,69 713.4688,68.4219 L713.4688,71.1406 Z "/><text fill="#000000" font-family="sans-serif" font-size="12" lengthAdjust="spacingAndGlyphs" textLength="37" x="724.5" y="69.6543">libuac</text><line style="stroke: #A80036; stroke-width: 1.5;" x1="696.5" x2="763.5" y1="81.5" y2="81.5"/><line style="stroke: #A80036; stroke-width: 1.5;" x1="696.5" x2="763.5" y1="89.5" y2="89.5"/><!--class libuvc--><rect fill="#FEFECE" filter="url(#f1cxqh7x3h8huy)" height="48" id="libuvc" style="stroke: #A80036; stroke-width: 1.5;" width="67" x="593.5" y="49.5"/><ellipse cx="608.5" cy="65.5" fill="#ADD1B2" rx="11" ry="11" style="stroke: #A80036; stroke-width: 1.0;"/><path d="M611.4688,71.1406 Q610.8906,71.4375 610.25,71.5781 Q609.6094,71.7344 608.9063,71.7344 Q606.4063,71.7344 605.0781,70.0938 Q603.7656,68.4375 603.7656,65.3125 Q603.7656,62.1875 605.0781,60.5313 Q606.4063,58.875 608.9063,58.875 Q609.6094,58.875 610.25,59.0313 Q610.9063,59.1875 611.4688,59.4844 L611.4688,62.2031 Q610.8438,61.625 610.25,61.3594 Q609.6563,61.0781 609.0313,61.0781 Q607.6875,61.0781 607,62.1563 Q606.3125,63.2188 606.3125,65.3125 Q606.3125,67.4063 607,68.4844 Q607.6875,69.5469 609.0313,69.5469 Q609.6563,69.5469 610.25,69.2813 Q610.8438,69 611.4688,68.4219 L611.4688,71.1406 Z "/><text fill="#000000" font-family="sans-serif" font-size="12" lengthAdjust="spacingAndGlyphs" textLength="35" x="622.5" y="69.6543">libuvc</text><line style="stroke: #A80036; stroke-width: 1.5;" x1="594.5" x2="659.5" y1="81.5" y2="81.5"/><line style="stroke: #A80036; stroke-width: 1.5;" x1="594.5" x2="659.5" y1="89.5" y2="89.5"/><!--class libvector--><rect fill="#FEFECE" filter="url(#f1cxqh7x3h8huy)" height="48" id="libvector" style="stroke: #A80036; stroke-width: 1.5;" width="85" x="299.5" y="164"/><ellipse cx="314.5" cy="180" fill="#ADD1B2" rx="11" ry="11" style="stroke: #A80036; stroke-width: 1.0;"/><path d="M317.4688,185.6406 Q316.8906,185.9375 316.25,186.0781 Q315.6094,186.2344 314.9063,186.2344 Q312.4063,186.2344 311.0781,184.5938 Q309.7656,182.9375 309.7656,179.8125 Q309.7656,176.6875 311.0781,175.0313 Q312.4063,173.375 314.9063,173.375 Q315.6094,173.375 316.25,173.5313 Q316.9063,173.6875 317.4688,173.9844 L317.4688,176.7031 Q316.8438,176.125 316.25,175.8594 Q315.6563,175.5781 315.0313,175.5781 Q313.6875,175.5781 313,176.6563 Q312.3125,177.7188 312.3125,179.8125 Q312.3125,181.9063 313,182.9844 Q313.6875,184.0469 315.0313,184.0469 Q315.6563,184.0469 316.25,183.7813 Q316.8438,183.5 317.4688,182.9219 L317.4688,185.6406 Z "/><text fill="#000000" font-family="sans-serif" font-size="12" lengthAdjust="spacingAndGlyphs" textLength="53" x="328.5" y="184.1543">libvector</text><line style="stroke: #A80036; stroke-width: 1.5;" x1="300.5" x2="383.5" y1="196" y2="196"/><line style="stroke: #A80036; stroke-width: 1.5;" x1="300.5" x2="383.5" y1="204" y2="204"/><!--class libworkq--><rect fill="#FEFECE" filter="url(#f1cxqh7x3h8huy)" height="48" id="libworkq" style="stroke: #A80036; stroke-width: 1.5;" width="83" x="1568.5" y="164"/><ellipse cx="1583.5" cy="180" fill="#ADD1B2" rx="11" ry="11" style="stroke: #A80036; stroke-width: 1.0;"/><path d="M1586.4688,185.6406 Q1585.8906,185.9375 1585.25,186.0781 Q1584.6094,186.2344 1583.9063,186.2344 Q1581.4063,186.2344 1580.0781,184.5938 Q1578.7656,182.9375 1578.7656,179.8125 Q1578.7656,176.6875 1580.0781,175.0313 Q1581.4063,173.375 1583.9063,173.375 Q1584.6094,173.375 1585.25,173.5313 Q1585.9063,173.6875 1586.4688,173.9844 L1586.4688,176.7031 Q1585.8438,176.125 1585.25,175.8594 Q1584.6563,175.5781 1584.0313,175.5781 Q1582.6875,175.5781 1582,176.6563 Q1581.3125,177.7188 1581.3125,179.8125 Q1581.3125,181.9063 1582,182.9844 Q1582.6875,184.0469 1584.0313,184.0469 Q1584.6563,184.0469 1585.25,183.7813 Q1585.8438,183.5 1586.4688,182.9219 L1586.4688,185.6406 Z "/><text fill="#000000" font-family="sans-serif" font-size="12" lengthAdjust="spacingAndGlyphs" textLength="51" x="1597.5" y="184.1543">libworkq</text><line style="stroke: #A80036; stroke-width: 1.5;" x1="1569.5" x2="1650.5" y1="196" y2="196"/><line style="stroke: #A80036; stroke-width: 1.5;" x1="1569.5" x2="1650.5" y1="204" y2="204"/><!--class liblog--><rect fill="#FEFECE" filter="url(#f1cxqh7x3h8huy)" height="48" id="liblog" style="stroke: #A80036; stroke-width: 1.5;" width="65" x="419.5" y="164"/><ellipse cx="434.5" cy="180" fill="#ADD1B2" rx="11" ry="11" style="stroke: #A80036; stroke-width: 1.0;"/><path d="M437.4688,185.6406 Q436.8906,185.9375 436.25,186.0781 Q435.6094,186.2344 434.9063,186.2344 Q432.4063,186.2344 431.0781,184.5938 Q429.7656,182.9375 429.7656,179.8125 Q429.7656,176.6875 431.0781,175.0313 Q432.4063,173.375 434.9063,173.375 Q435.6094,173.375 436.25,173.5313 Q436.9063,173.6875 437.4688,173.9844 L437.4688,176.7031 Q436.8438,176.125 436.25,175.8594 Q435.6563,175.5781 435.0313,175.5781 Q433.6875,175.5781 433,176.6563 Q432.3125,177.7188 432.3125,179.8125 Q432.3125,181.9063 433,182.9844 Q433.6875,184.0469 435.0313,184.0469 Q435.6563,184.0469 436.25,183.7813 Q436.8438,183.5 437.4688,182.9219 L437.4688,185.6406 Z "/><text fill="#000000" font-family="sans-serif" font-size="12" lengthAdjust="spacingAndGlyphs" textLength="33" x="448.5" y="184.1543">liblog</text><line style="stroke: #A80036; stroke-width: 1.5;" x1="420.5" x2="483.5" y1="196" y2="196"/><line style="stroke: #A80036; stroke-width: 1.5;" x1="420.5" x2="483.5" y1="204" y2="204"/><!--class ffmpeg--><rect fill="#FEFECE" filter="url(#f1cxqh7x3h8huy)" height="48" id="ffmpeg" style="stroke: #A80036; stroke-width: 1.5;" width="75" x="810.5" y="164"/><ellipse cx="825.5" cy="180" fill="#ADD1B2" rx="11" ry="11" style="stroke: #A80036; stroke-width: 1.0;"/><path d="M828.4688,185.6406 Q827.8906,185.9375 827.25,186.0781 Q826.6094,186.2344 825.9063,186.2344 Q823.4063,186.2344 822.0781,184.5938 Q820.7656,182.9375 820.7656,179.8125 Q820.7656,176.6875 822.0781,175.0313 Q823.4063,173.375 825.9063,173.375 Q826.6094,173.375 827.25,173.5313 Q827.9063,173.6875 828.4688,173.9844 L828.4688,176.7031 Q827.8438,176.125 827.25,175.8594 Q826.6563,175.5781 826.0313,175.5781 Q824.6875,175.5781 824,176.6563 Q823.3125,177.7188 823.3125,179.8125 Q823.3125,181.9063 824,182.9844 Q824.6875,184.0469 826.0313,184.0469 Q826.6563,184.0469 827.25,183.7813 Q827.8438,183.5 828.4688,182.9219 L828.4688,185.6406 Z "/><text fill="#000000" font-family="sans-serif" font-size="12" lengthAdjust="spacingAndGlyphs" textLength="43" x="839.5" y="184.1543">ffmpeg</text><line style="stroke: #A80036; stroke-width: 1.5;" x1="811.5" x2="884.5" y1="196" y2="196"/><line style="stroke: #A80036; stroke-width: 1.5;" x1="811.5" x2="884.5" y1="204" y2="204"/><!--link libconfig to libposix--><path d="M264.0533,205.5504 C270.0363,207.8336 276.145,210.0522 282,212 C389.0865,247.6248 517.2463,279.5049 588.7614,296.3601 " fill="none" id="libconfig-libposix" style="stroke: #A80036; stroke-width: 1.0;"/><polygon fill="#A80036" points="601.4378,299.33,596.5084,294.0668,589.7542,296.5927,594.6835,301.8559,601.4378,299.33" style="stroke: #A80036; stroke-width: 1.0;"/><!--link libgevent to libdarray--><path d="M1617.1969,333.1953 C1629.0064,350.8368 1645.1909,375.0135 1658.4311,394.7921 " fill="none" id="libgevent-libdarray" style="stroke: #A80036; stroke-width: 1.0;"/><polygon fill="#A80036" points="1665.8312,405.8466,1665.8175,398.6355,1659.1558,395.8747,1659.1695,403.0858,1665.8312,405.8466" style="stroke: #A80036; stroke-width: 1.0;"/><!--link libhash to libposix--><path d="M1418.3308,206.2042 C1412.6091,208.4171 1406.7148,210.4419 1401,212 C1145.0731,281.775 826.4579,301.7403 699.7311,307.1288 " fill="none" id="libhash-libposix" style="stroke: #A80036; stroke-width: 1.0;"/><polygon fill="#A80036" points="686.655,307.6614,692.8129,311.4138,698.645,307.1728,692.4872,303.4204,686.655,307.6614" style="stroke: #A80036; stroke-width: 1.0;"/><!--link libipc to libdict--><path d="M1755.4001,212.1953 C1754.977,229.2597 1754.4023,252.4389 1753.9214,271.8375 " fill="none" id="libipc-libdict" style="stroke: #A80036; stroke-width: 1.0;"/><polygon fill="#A80036" points="1753.5988,284.8466,1757.7463,278.9476,1753.8963,272.8503,1749.7488,278.7493,1753.5988,284.8466" style="stroke: #A80036; stroke-width: 1.0;"/><!--link libipc to libgevent--><path d="M1725.006,212.1953 C1701.2458,230.7436 1668.2312,256.5163 1642.2405,276.8058 " fill="none" id="libipc-libgevent" style="stroke: #A80036; stroke-width: 1.0;"/><polygon fill="#A80036" points="1631.9403,284.8466,1639.1312,284.3075,1641.3993,277.4624,1634.2084,278.0015,1631.9403,284.8466" style="stroke: #A80036; stroke-width: 1.0;"/><!--link liblog to libposix--><path d="M484.5702,208.526 C513.5032,226.7598 556.3497,253.762 590.3402,275.1832 " fill="none" id="liblog-libposix" style="stroke: #A80036; stroke-width: 1.0;"/><polygon fill="#A80036" points="601.4951,282.213,598.5517,275.63,591.343,275.815,594.2864,282.3981,601.4951,282.213" style="stroke: #A80036; stroke-width: 1.0;"/><!--link libmp4 to libmedia-io--><path d="M816.1019,97.503 C799.7202,113.9565 777.7563,136.0167 759.6153,154.2372 " fill="none" id="libmp4-libmedia-io" style="stroke: #A80036; stroke-width: 1.0;"/><polygon fill="#A80036" points="750.2593,163.6343,757.3273,162.2046,758.726,155.1304,751.658,156.5602,750.2593,163.6343" style="stroke: #A80036; stroke-width: 1.0;"/><!--link libmp4 to ffmpeg--><path d="M841.6771,97.503 C842.7525,112.8949 844.1707,133.1936 845.3915,150.6653 " fill="none" id="libmp4-ffmpeg" style="stroke: #A80036; stroke-width: 1.0;"/><polygon fill="#A80036" points="846.2976,163.6343,849.8696,157.37,845.461,151.6635,841.889,157.9278,846.2976,163.6343" style="stroke: #A80036; stroke-width: 1.0;"/><!--link libmedia-io to libposix--><path d="M709.6032,212.1953 C700.095,226.2257 687.7854,244.3898 676.4018,261.1876 " fill="none" id="libmedia-io-libposix" style="stroke: #A80036; stroke-width: 1.0;"/><polygon fill="#A80036" points="669.0936,271.9716,675.7709,269.2487,675.8256,262.0378,669.1483,264.7607,669.0936,271.9716" style="stroke: #A80036; stroke-width: 1.0;"/><!--link libplugin to libposix--><path d="M578.3968,212.1953 C587.905,226.2257 600.2146,244.3898 611.5982,261.1876 " fill="none" id="libplugin-libposix" style="stroke: #A80036; stroke-width: 1.0;"/><polygon fill="#A80036" points="618.9064,271.9716,618.8517,264.7607,612.1744,262.0378,612.2291,269.2487,618.9064,271.9716" style="stroke: #A80036; stroke-width: 1.0;"/><!--link libqueue to libposix--><path d="M108.0206,203.8215 C116.8729,206.7736 126.1834,209.6612 135,212 C297.6016,255.1345 494.2534,287.0107 588.4438,301.0598 " fill="none" id="libqueue-libposix" style="stroke: #A80036; stroke-width: 1.0;"/><polygon fill="#A80036" points="601.3107,302.9629,595.9605,298.128,589.4398,301.2071,594.79,306.0419,601.3107,302.9629" style="stroke: #A80036; stroke-width: 1.0;"/><!--link librpc to libdarray--><path d="M1527.1201,78.0827 C1600.3222,88.9597 1772.0847,118.8492 1806,164 C1822.4958,185.9605 1849.5594,262.3674 1805,346 C1790.4093,373.385 1762.4723,393.5532 1736.9065,407.2534 " fill="none" id="librpc-libdarray" style="stroke: #A80036; stroke-width: 1.0;"/><polygon fill="#A80036" points="1725.0008,413.2788,1732.1605,414.1384,1735.7077,407.8601,1728.548,407.0005,1725.0008,413.2788" style="stroke: #A80036; stroke-width: 1.0;"/><!--link librpc to libgevent--><path d="M1527.1966,79.8448 C1568.7316,89.7583 1638.1454,113.3075 1669,164 C1691.1445,200.3823 1662.4402,245.1416 1635.8114,275.226 " fill="none" id="librpc-libgevent" style="stroke: #A80036; stroke-width: 1.0;"/><polygon fill="#A80036" points="1626.9368,284.8326,1633.9464,283.1397,1635.0796,276.0182,1628.0701,277.7111,1626.9368,284.8326" style="stroke: #A80036; stroke-width: 1.0;"/><!--link librpc to libworkq--><path d="M1518.3174,97.503 C1535.0633,114.0323 1557.5418,136.2202 1576.0499,154.4889 " fill="none" id="librpc-libworkq" style="stroke: #A80036; stroke-width: 1.0;"/><polygon fill="#A80036" points="1585.3151,163.6343,1583.8549,156.5726,1576.7748,155.2044,1578.235,162.2661,1585.3151,163.6343" style="stroke: #A80036; stroke-width: 1.0;"/><!--link librpc to libhash--><path d="M1486.2436,97.503 C1481.2208,113.0466 1474.581,133.594 1468.8979,151.1809 " fill="none" id="librpc-libhash" style="stroke: #A80036; stroke-width: 1.0;"/><polygon fill="#A80036" points="1464.8736,163.6343,1470.5248,159.155,1468.5635,152.2157,1462.9124,156.695,1464.8736,163.6343" style="stroke: #A80036; stroke-width: 1.0;"/><!--link librpc to libskt--><path d="M1460.7683,80.8368 C1401.4259,94.365 1273.7302,125.4156 1170,164 C1167.9192,164.774 1165.8066,165.5993 1163.6843,166.4607 " fill="none" id="librpc-libskt" style="stroke: #A80036; stroke-width: 1.0;"/><polygon fill="#A80036" points="1151.5752,171.684,1158.6688,172.9804,1162.5938,166.9311,1155.5002,165.6347,1151.5752,171.684" style="stroke: #A80036; stroke-width: 1.0;"/><!--link librpc to libthread--><path d="M1460.9572,87.8856 C1417.4039,106.847 1340.1348,140.4869 1287.2852,163.4956 " fill="none" id="librpc-libthread" style="stroke: #A80036; stroke-width: 1.0;"/><polygon fill="#A80036" points="1275.0753,168.8113,1282.1732,170.0838,1286.0778,164.0212,1278.9799,162.7488,1275.0753,168.8113" style="stroke: #A80036; stroke-width: 1.0;"/><!--link librpc to libtime--><path d="M1463.184,97.503 C1441.5005,114.3924 1412.2324,137.1898 1388.4972,155.6774 " fill="none" id="librpc-libtime" style="stroke: #A80036; stroke-width: 1.0;"/><polygon fill="#A80036" points="1378.0282,163.8317,1385.2197,163.3004,1387.4952,156.4577,1380.3037,156.989,1378.0282,163.8317" style="stroke: #A80036; stroke-width: 1.0;"/><!--link librpc to libposix--><path d="M1507.3953,97.6028 C1522.3684,128.1559 1541.0755,180.6163 1513,212 C1458.5991,272.8111 882.6641,299.8955 699.557,307.0118 " fill="none" id="librpc-libposix" style="stroke: #A80036; stroke-width: 1.0;"/><polygon fill="#A80036" points="686.5626,307.5088,692.7111,311.2766,698.5538,307.0502,692.4053,303.2824,686.5626,307.5088" style="stroke: #A80036; stroke-width: 1.0;"/><!--link librtmpc to libgevent--><path d="M185.3155,77.5282 C287.3642,88.07 548.4027,118.8158 622,164 C644.9548,178.0928 635.4704,198.8894 659,212 C736.3133,255.0788 1350.0456,294.3162 1543.0886,305.6954 " fill="none" id="librtmpc-libgevent" style="stroke: #A80036; stroke-width: 1.0;"/><polygon fill="#A80036" points="1556.2475,306.4663,1550.4917,302.1222,1544.268,305.7644,1550.0238,310.1085,1556.2475,306.4663" style="stroke: #A80036; stroke-width: 1.0;"/><!--link librtmpc to libqueue--><path d="M127.439,97.503 C116.4007,113.5015 101.7049,134.8011 89.3435,152.7173 " fill="none" id="librtmpc-libqueue" style="stroke: #A80036; stroke-width: 1.0;"/><polygon fill="#A80036" points="81.8113,163.6343,88.5111,160.9673,88.6261,153.7571,81.9263,156.4241,81.8113,163.6343" style="stroke: #A80036; stroke-width: 1.0;"/><!--link librtmpc to libposix--><path d="M139.7005,97.5522 C135.7012,128.2966 134.0887,181.2178 163,212 C220.4435,273.1606 474.2965,297.6317 588.2705,305.6634 " fill="none" id="librtmpc-libposix" style="stroke: #A80036; stroke-width: 1.0;"/><polygon fill="#A80036" points="601.4537,306.5627,595.7399,302.1636,589.4815,305.7459,595.1954,310.145,601.4537,306.5627" style="stroke: #A80036; stroke-width: 1.0;"/><!--link librtsp to libskt--><path d="M1064.4647,97.503 C1074.06,113.4257 1086.8197,134.5993 1097.5843,152.4623 " fill="none" id="librtsp-libskt" style="stroke: #A80036; stroke-width: 1.0;"/><polygon fill="#A80036" points="1104.3167,163.6343,1104.6459,156.4307,1098.123,153.3563,1097.7938,160.5598,1104.3167,163.6343" style="stroke: #A80036; stroke-width: 1.0;"/><!--link librtsp to libbase64--><path d="M1032.6005,97.503 C1020.9483,113.5773 1005.417,135.0031 992.3916,152.9718 " fill="none" id="librtsp-libbase64" style="stroke: #A80036; stroke-width: 1.0;"/><polygon fill="#A80036" points="984.6625,163.6343,991.4226,161.124,991.7054,153.9185,984.9453,156.4287,984.6625,163.6343" style="stroke: #A80036; stroke-width: 1.0;"/><!--link librtsp to libgevent--><path d="M1045.6125,97.6356 C1041.5181,128.4701 1039.803,181.4887 1069,212 C1133.5187,279.4229 1418.6475,300.6253 1542.8485,306.7341 " fill="none" id="librtsp-libgevent" style="stroke: #A80036; stroke-width: 1.0;"/><polygon fill="#A80036" points="1556.1178,307.3591,1550.3127,303.0812,1544.1311,306.7944,1549.9362,311.0723,1556.1178,307.3591" style="stroke: #A80036; stroke-width: 1.0;"/><!--link libthread to libposix--><path d="M1186.975,206.195 C1180.992,208.3273 1174.8858,210.3329 1169,212 C1001.2073,259.5269 796.4681,289.5893 699.7276,302.1861 " fill="none" id="libthread-libposix" style="stroke: #A80036; stroke-width: 1.0;"/><polygon fill="#A80036" points="686.8089,303.8476,693.2702,307.0495,698.7109,302.3167,692.2496,299.1149,686.8089,303.8476" style="stroke: #A80036; stroke-width: 1.0;"/><!--link libtime to libposix--><path d="M1310.3125,205.8775 C1304.6094,208.1952 1298.7132,210.3368 1293,212 C1079.0986,274.2717 813.293,298.0077 699.6903,305.7451 " fill="none" id="libtime-libposix" style="stroke: #A80036; stroke-width: 1.0;"/><polygon fill="#A80036" points="686.6046,306.6109,692.8556,310.206,698.5784,305.8186,692.3274,302.2235,686.6046,306.6109" style="stroke: #A80036; stroke-width: 1.0;"/><!--link libuac to libmedia-io--><path d="M729.1615,97.503 C728.6264,112.8191 727.9216,132.9937 727.3133,150.4069 " fill="none" id="libuac-libmedia-io" style="stroke: #A80036; stroke-width: 1.0;"/><polygon fill="#A80036" points="726.8512,163.6343,731.0583,157.7777,727.2703,151.6416,723.0632,157.4983,726.8512,163.6343" style="stroke: #A80036; stroke-width: 1.0;"/><!--link libuvc to libmedia-io--><path d="M647.7536,97.503 C661.8487,113.8048 680.7026,135.6106 696.3713,153.7325 " fill="none" id="libuvc-libmedia-io" style="stroke: #A80036; stroke-width: 1.0;"/><polygon fill="#A80036" points="704.9327,163.6343,704.0342,156.4794,697.0841,154.5569,697.9826,161.7118,704.9327,163.6343" style="stroke: #A80036; stroke-width: 1.0;"/><!--link libvector to libposix--><path d="M384.6287,205.0797 C438.0998,226.5036 529.8905,263.2806 588.7126,286.8484 " fill="none" id="libvector-libposix" style="stroke: #A80036; stroke-width: 1.0;"/><polygon fill="#A80036" points="601.1003,291.8117,597.0184,285.8671,589.9611,287.3486,594.043,293.2932,601.1003,291.8117" style="stroke: #A80036; stroke-width: 1.0;"/><!--link libworkq to libgevent--><path d="M1608.2003,212.1953 C1606.9311,229.2597 1605.207,252.4389 1603.7642,271.8375 " fill="none" id="libworkq-libgevent" style="stroke: #A80036; stroke-width: 1.0;"/><polygon fill="#A80036" points="1602.7965,284.8466,1607.2305,279.1598,1603.6866,272.8797,1599.2526,278.5664,1602.7965,284.8466" style="stroke: #A80036; stroke-width: 1.0;"/><!--link libworkq to libdarray--><path d="M1629.369,212.2138 C1641.1078,228.232 1655.2666,250.2262 1663,272 C1677.0557,311.5745 1681.1184,359.8579 1682.0996,392.5554 " fill="none" id="libworkq-libdarray" style="stroke: #A80036; stroke-width: 1.0;"/><polygon fill="#A80036" points="1682.3552,405.9687,1686.2401,399.8936,1682.1265,393.9709,1678.2416,400.046,1682.3552,405.9687" style="stroke: #A80036; stroke-width: 1.0;"/><!--link libworkq to libposix--><path d="M1568.4799,204.1439 C1559.5251,207.1439 1550.033,209.9684 1541,212 C1228.2026,282.3511 842.1674,302.2139 699.9724,307.3502 " fill="none" id="libworkq-libposix" style="stroke: #A80036; stroke-width: 1.0;"/><polygon fill="#A80036" points="686.5901,307.8156,692.7255,311.6046,698.5828,307.3984,692.4474,303.6094,686.5901,307.8156" style="stroke: #A80036; stroke-width: 1.0;"/><!--link libdebug to libfile--><!--link libfile to libfsm--><!--link libfsm to libhal--><!--link libdebug to libhomekit--><!--link libhomekit to libp2p--><!--link libp2p to librbtree--><!--link librbtree to libringbuffer--><!--link libhomekit to libsort--><!--link libsort to libstrex--><!--link libstrex to libsubmask--><!--
@startuml

package gear-lib {

'describe all libraries
class libbase64
class libconfig
class libdarray
class libdebug
class libdict
class libfile {
    libfilewatcher
}
class libfsm
class libgevent
class libhal
class libhash
class libhomekit
class libipc
class "libmedia-io"
class libmp4
class libp2p
class libplugin
class libposix {
    libposix4rtos
    libposix4win
}
class libqueue
class librbtree
class libringbuffer
class librpc
class librtmpc
class librtsp
class libskt
class libsort
class libstrex
class libsubmask
class libthread
class libtime
class libuac
class libuvc
class libvector
class libworkq

'describe dependency of all libraires
libconfig     - -* libposix
libgevent     - -* libdarray
libhash       - -* libposix
libipc        - -* libdict
libipc        - -* libgevent
liblog        - -* libposix
libmp4        - -* "libmedia-io"
libmp4        - -* ffmpeg
"libmedia-io" - -* libposix
libplugin     - -* libposix
'libp2p        - -* librpc
'libp2p        - -* libposix
'libp2p        - -* libhash
'libp2p        - -* libgevent
'libp2p        - -* libskt
'libp2p        - -* libthread
libqueue      - -* libposix
librpc        - -* libdarray
librpc        - -* libgevent
librpc        - -* libworkq
librpc        - -* libhash
librpc        - -* libskt
librpc        - -* libthread
librpc        - -* libtime
librpc        - -* libposix
librtmpc      - -* libgevent
librtmpc      - -* libqueue
librtmpc      - -* libposix
librtsp       - -* libskt
librtsp       - -* libbase64
librtsp       - -* libgevent
libthread     - -* libposix
libtime       - -* libposix
libuac        - -* "libmedia-io"
libuvc        - -* "libmedia-io"
libvector     - -* libposix
libworkq      - -* libgevent
libworkq      - -* libdarray
libworkq      - -* libposix
}
@enduml

PlantUML version 1.2017.15(Tue Jul 04 00:45:34 CST 2017)
(GPL source distribution)
Java Runtime: OpenJDK Runtime Environment
JVM: OpenJDK 64-Bit Server VM
Java Version: 10.0.2+13-Ubuntu-1ubuntu0.18.04.2
Operating System: Linux
OS Version: 4.15.0-34-generic
Default Encoding: UTF-8
Language: en
Country: US
--></g></svg>